<svg xmlns="http://www.w3.org/2000/svg" xmlns:xlink="http://www.w3.org/1999/xlink" version="1.1" width="256" height="256" viewBox="0 0 256 256" xml:space="preserve">
<g style="stroke: none; stroke-width: 0; stroke-dasharray: none; stroke-linecap: butt; stroke-linejoin: miter; stroke-miterlimit: 10; fill: none; fill-rule: nonzero; opacity: 1;" transform="translate(1.4065934065934016 1.4065934065934016) scale(2.81 2.81)">
	<rect x="3" y="13.82" rx="0" ry="0" width="68.47" height="68.47" style="stroke: none; stroke-width: 1; stroke-dasharray: none; stroke-linecap: butt; stroke-linejoin: miter; stroke-miterlimit: 10; fill: rgb(231,157,52); fill-rule: nonzero; opacity: 1;" transform=" matrix(0.9982 0.0602 -0.0602 0.9982 2.9619 -2.1553) "/>
	<path d="M 69.347 85.293 c -0.021 0 -0.04 -0.001 -0.061 -0.002 L 0.94 81.167 c -0.551 -0.033 -0.971 -0.507 -0.938 -1.059 l 4.124 -68.346 c 0.033 -0.552 0.509 -0.986 1.058 -0.938 l 68.347 4.124 c 0.551 0.033 0.971 0.507 0.938 1.058 l -4.123 68.347 c -0.016 0.265 -0.137 0.512 -0.335 0.688 C 69.826 85.204 69.591 85.293 69.347 85.293 z M 2.059 79.231 l 66.351 4.003 l 4.002 -66.35 l -66.35 -4.003 L 2.059 79.231 z" style="stroke: none; stroke-width: 1; stroke-dasharray: none; stroke-linecap: butt; stroke-linejoin: miter; stroke-miterlimit: 10; fill: rgb(0,0,0); fill-rule: nonzero; opacity: 1;" transform=" matrix(1 0 0 1 0 0) " stroke-linecap="round"/>
	<rect x="14.61" y="12.37" rx="0" ry="0" width="68.47" height="68.47" style="stroke: none; stroke-width: 1; stroke-dasharray: none; stroke-linecap: butt; stroke-linejoin: miter; stroke-miterlimit: 10; fill: rgb(255,202,66); fill-rule: nonzero; opacity: 1;" transform=" matrix(-0.9815 0.1914 -0.1914 -0.9815 105.7076 83.0031) "/>
	<path d="M 21.794 87.761 c -0.469 0 -0.887 -0.331 -0.98 -0.809 L 7.709 19.747 c -0.106 -0.542 0.248 -1.067 0.79 -1.173 L 75.704 5.47 c 0.537 -0.109 1.067 0.248 1.173 0.79 l 13.104 67.206 c 0.051 0.261 -0.004 0.53 -0.152 0.75 c -0.147 0.22 -0.377 0.372 -0.638 0.423 L 21.986 87.742 C 21.922 87.755 21.857 87.761 21.794 87.761 z M 9.864 20.346 l 12.721 65.242 l 65.242 -12.721 L 75.105 7.625 L 9.864 20.346 z" style="stroke: none; stroke-width: 1; stroke-dasharray: none; stroke-linecap: butt; stroke-linejoin: miter; stroke-miterlimit: 10; fill: rgb(0,0,0); fill-rule: nonzero; opacity: 1;" transform=" matrix(1 0 0 1 0 0) " stroke-linecap="round"/>
	<circle cx="51.230000000000004" cy="9.47" r="6.23" style="stroke: none; stroke-width: 1; stroke-dasharray: none; stroke-linecap: butt; stroke-linejoin: miter; stroke-miterlimit: 10; fill: rgb(234,70,61); fill-rule: nonzero; opacity: 1;" transform="  matrix(1 0 0 1 0 0) "/>
	<path d="M 51.229 16.699 c -3.986 0 -7.229 -3.243 -7.229 -7.23 c 0 -3.986 3.243 -7.229 7.229 -7.229 c 3.987 0 7.23 3.243 7.23 7.229 C 58.46 13.456 55.217 16.699 51.229 16.699 z M 51.229 4.239 C 48.346 4.239 46 6.585 46 9.469 s 2.346 5.23 5.229 5.23 s 5.23 -2.346 5.23 -5.23 S 54.113 4.239 51.229 4.239 z" style="stroke: none; stroke-width: 1; stroke-dasharray: none; stroke-linecap: butt; stroke-linejoin: miter; stroke-miterlimit: 10; fill: rgb(0,0,0); fill-rule: nonzero; opacity: 1;" transform=" matrix(1 0 0 1 0 0) " stroke-linecap="round"/>
	<path d="M 40.571 24.308 c -0.213 0 -0.428 -0.068 -0.61 -0.208 c -0.438 -0.337 -0.519 -0.965 -0.182 -1.403 l 6.861 -8.908 c 0.336 -0.438 0.964 -0.519 1.402 -0.182 c 0.438 0.337 0.519 0.965 0.182 1.403 l -6.86 8.908 C 41.167 24.174 40.871 24.308 40.571 24.308 z" style="stroke: none; stroke-width: 1; stroke-dasharray: none; stroke-linecap: butt; stroke-linejoin: miter; stroke-miterlimit: 10; fill: rgb(0,0,0); fill-rule: nonzero; opacity: 1;" transform=" matrix(1 0 0 1 0 0) " stroke-linecap="round"/>
</g>
</svg>